# xmcd
#
# Track frame offsets: 
#        150
#        83267
#        108780
#        134467
#        159725
#        166565
#        197107
#        220862
#
# Disc length: 3250 seconds
#
# Revision: 2
# Processed by: cddbd v1.5.2PL0 Copyright (c) Steve Scherf et al.
# Submitted via: ExactAudioCopyFreeDBPlugin 1.0
#
DISCID=5b0cb008
DTITLE=村松健 - 夢の扉
DYEAR=1994
DGENRE=Instrumental
TTITLE0=夢の扉
TTITLE1=MAY SONG  〜 風光る時 〜
TTITLE2=夢で逢った人
TTITLE3=春の野を行く
TTITLE4=〜 like a sleeping flower 〜
TTITLE5=森のピアノ  〜 Voice in the wood 〜
TTITLE6=MY BELLS  〜 突然の告白 〜
TTITLE7=そぼ降る夕べ
EXTD=
EXTT0=
EXTT1=
EXTT2=
EXTT3=
EXTT4=
EXTT5=
EXTT6=
EXTT7=
PLAYORDER=
